<?xml version="1.0" encoding="utf-8"?>
<!-- Generator: Adobe Illustrator 19.0.0, SVG Export Plug-In . SVG Version: 6.00 Build 0)  -->
<svg version="1.1" id="Layer_1" xmlns="http://www.w3.org/2000/svg" xmlns:xlink="http://www.w3.org/1999/xlink" x="0px" y="0px"
	 viewBox="0 0 48.8 48.8" style="enable-background:new 0 0 48.8 48.8;" xml:space="preserve">
<style type="text/css">
	.st0{fill:#FF0000;}
	.st1{enable-background:new    ;}
	.st2{fill:#FFFFFF;}
	.st3{clip-path:url(#XMLID_66_);}
	.st4{clip-path:url(#XMLID_67_);}
</style>
<symbol  id="E" viewBox="-42.3 -84 84.6 168">
	
		<text id="XMLID_10_" transform="matrix(1 0 0 -1 -42.2993 -45.3003)" class="st0" style="font-family:'Agipo-Bold'; font-size:150px;">E</text>
</symbol>
<g id="XMLID_2_">
	<g id="XMLID_72_">
		<g id="XMLID_76_" class="st1">
			<g id="XMLID_126_" class="st1">
				<defs>
					<path id="XMLID_130_" class="st1" d="M-0.5,24.3c0-0.9,0-3.3,0.8-6.3c0.8-3.1,2-5.2,2.4-5.8c0.6-1,1.4-2.2,2.1-3.1
						c0.4-0.6,1-1.3,1.5-1.7C8,5.6,8,5.6,9.6,4.4c0.9-0.7,1.9-1.3,2.8-1.8c0.7-0.4,1.8-0.9,2.6-1.2c1.1-0.4,1.8-0.7,3.6-1.2
						c1.3-0.3,3.4-0.7,6.1-0.7c3.1,0,5.5,0.6,6.6,0.9c0.4,0.1,1.4,0.4,2.9,1c0.8,0.3,1.8,0.9,2.5,1.3C42.7,6.2,46.8,13,46.7,21.4
						c0,13.2-10.1,25.3-22.4,26.9c12.3-1.7,22.4-13.7,22.4-26.9c0-8.4-4-15.2-10.1-18.6c0.6,0.3,1.4,0.8,1.9,1.2
						c0.4,0.3,1,0.7,1.4,1c0.5,0.4,1.2,1,1.6,1.4c1.6,1.7,1.8,1.8,2.6,3c1.2,1.6,2,3,2.2,3.4c0.4,0.8,1,1.9,1.6,3.7
						c0.4,1.1,0.7,2.7,1,3.8c0.3,1.7,0.5,4.6,0.2,6.7c-0.2,1.4-0.3,2.3-0.8,4.1C48,32.4,48,32.4,47,34.9c-0.3,0.7-1.5,3.1-3.5,5.4
						c-3.3,3.9-7.6,6.7-12.4,8c-3.6,1-7.4,1.2-11.1,0.6c-2.7-0.5-4.7-1.3-5.4-1.6c-2.3-1-4.2-2.3-4.7-2.7c-0.5-0.4-1.2-0.9-1.7-1.4
						c-1.7-1.6-1.8-1.7-2.8-2.8c-1.2-1.4-2.3-3.1-3.3-4.9c-0.3-0.6-0.7-1.3-0.9-1.9c-0.4-1.1-0.9-2.6-1.2-3.7
						C-0.4,27.5-0.5,25.4-0.5,24.3z"/>
				</defs>
				<clipPath id="XMLID_64_">
					<use xlink:href="#XMLID_130_"  style="overflow:visible;"/>
				</clipPath>
			</g>
			<g id="XMLID_124_">
				<path id="XMLID_125_" class="st2" d="M0.5,24.4c0-0.9,0-3.2,0.8-6.1c0.8-2.9,1.9-5,2.3-5.6c0.6-0.9,1.4-2.1,2-3
					C6,9.1,6.6,8.5,7,8c1.7-1.6,1.7-1.6,3.1-2.8C11,4.5,12,4,12.9,3.5c0.7-0.4,1.7-0.9,2.5-1.2c1.1-0.4,1.8-0.7,3.4-1.1
					C20,0.9,22,0.5,24.6,0.5c3,0,5.2,0.6,6.3,0.9c0.4,0.1,1.4,0.4,2.8,1c0.8,0.3,1.7,0.8,2.4,1.2c5.8,3.3,9.7,9.9,9.7,17.9
					c0,12.7-9.7,24.2-21.5,25.8c11.8-1.6,21.5-13.2,21.5-25.8c0-8-3.8-14.6-9.7-17.9c0.6,0.3,1.3,0.8,1.9,1.2c0.4,0.3,0.9,0.7,1.3,1
					c0.5,0.4,1.1,0.9,1.6,1.4c1.6,1.6,1.7,1.8,2.5,2.8c1.2,1.5,1.9,2.9,2.1,3.2c1.6,3,2,4.8,2.5,7.2c0.3,1.5,0.5,4.3,0.2,6.4
					c-0.2,1.3-0.3,2.2-0.7,3.9c-0.4,1.3-0.4,1.3-1.4,3.7c-0.5,1.3-1.8,3.5-3.3,5.2c-3.2,3.8-7.3,6.4-11.9,7.7
					c-3.5,1-7.1,1.2-10.6,0.5c-2.6-0.5-4.5-1.3-5.2-1.5c-2.2-0.9-4-2.2-4.6-2.6c-0.5-0.4-1.2-0.9-1.7-1.3c-1.6-1.5-1.8-1.6-2.7-2.7
					C5,38.5,4,36.9,3.1,35.1c-0.3-0.5-0.6-1.3-0.8-1.8c-0.4-1.1-0.9-2.5-1.1-3.6C0.6,27.4,0.5,25.3,0.5,24.4z"/>
			</g>
			<g id="XMLID_119_" class="st1">
				<defs>
					<path id="XMLID_123_" class="st1" d="M21.2,0.7c3.9-0.5,6.8,0,8,0.3c0.8,0.2,2,0.5,3.7,1.1c1,0.4,2,0.8,3.3,1.5
						c5.8,3.3,9.7,9.9,9.7,17.9c0,12.7-9.7,24.2-21.5,25.8c11.8-1.6,21.5-13.2,21.5-25.8c0-8-3.8-14.6-9.7-17.9
						c0.4,0.3,1,0.6,1.4,0.8c0.6,0.4,1.4,1,2,1.5c0.8,0.7,1.8,1.6,2.5,2.4c0.9,0.9,2.7,3.3,3.5,5.1c0.9,1.9,1.1,2.2,1.5,3.6
						c0.6,1.8,0.7,2.9,0.9,3.9c0.2,1,0.3,2.4,0.2,3.5c0,1.2-0.2,2.7-0.3,3.9c-0.2,1.5-1,4.2-1.7,5.7c-1.1,2.2-1.1,2.2-1.8,3.4
						c-1,1.6-2,2.6-2.4,3c-2.5,2.7-4.3,3.8-6,4.8c-0.6,0.4-2.9,1.6-6.1,2.4c-2.9,0.7-5.1,0.7-6.8,0.6c-2.3-0.1-4.8-0.7-6.3-1.2
						c-0.7-0.3-1.7-0.6-2.4-1c-0.8-0.4-2.2-1.1-3.2-1.8c-0.4-0.3-0.9-0.6-1.3-0.9c-0.5-0.4-1.2-1-1.7-1.4c-1.5-1.4-2.6-2.8-2.7-2.9
						c-0.6-0.8-1.3-1.7-2.1-3.3c-0.5-1-1.1-2.3-1.5-3.4c-0.1-0.4-1.1-3.1-1.3-5.9c-0.1-1.6-0.1-1.6,0-4.1c0-0.7,0.2-1.6,0.3-2.3
						c0.4-1.7,0.5-2.4,1-3.8c0.7-1.9,1.5-3.4,1.6-3.5c0.9-1.5,2.9-5,7.5-8.1C14.9,2,18.7,1.1,21.2,0.7z"/>
				</defs>
				<clipPath id="XMLID_65_">
					<use xlink:href="#XMLID_123_"  style="overflow:visible;"/>
				</clipPath>
			</g>
			<g id="XMLID_113_" class="st1">
				<defs>
					<path id="XMLID_118_" class="st1" d="M36.2,3.6c-3.4-1.9-7.4-2.8-11.7-2.2C28.8,0.9,32.8,1.7,36.2,3.6C36.8,4,37.7,4.5,38.3,5
						c1.2,0.9,2.1,1.6,2.9,2.5c1.3,1.4,1.6,1.7,2.5,2.9c1.3,1.8,2,3.2,2,3.3c0.8,1.7,0.9,2,1.5,3.6c0.3,1,0.6,2.3,0.8,3.3
						c0.2,1.1,0.3,2.7,0.3,3.9c0,1.6-0.1,2.2-0.3,4c0,0-0.2,1.7-1,3.8c-0.5,1.3-0.6,1.6-1.6,3.6c0,0-1.2,2.4-3.6,4.9
						c-2.2,2.3-6,5.4-11.7,6.8c-6.2,1.5-11.4,0.1-13.3-0.6c-0.7-0.2-1.7-0.6-2.9-1.2c-1.2-0.6-2.3-1.2-3.1-1.8
						c-0.8-0.6-1.7-1.2-2.9-2.3c-1.3-1.2-2.1-2.3-2.5-2.8c-0.4-0.6-1.2-1.6-2.1-3.2c-0.5-1-1.1-2.4-1.5-3.4c-0.4-1-1.1-3.6-1.2-5.9
						c0-0.7-0.1-1.7-0.1-2.4c0.1-1.6,0.2-2.8,0.4-4C1.4,18.1,1.5,17.5,2,16c0.7-2,1.6-3.4,1.7-3.6c0.6-0.9,1.4-2.1,2-3
						c0.4-0.5,1-1.2,1.5-1.7c0.9-1,1.9-1.8,3.2-2.8c0.1-0.1,3.2-2.5,7.6-3.7c1.2-0.3,4.7-1.3,9.3-0.7c2.3,0.3,4.1,0.9,4.8,1.1
						c0.5,0.2,1.2,0.4,1.6,0.6C34.5,2.7,35.4,3.2,36.2,3.6z"/>
				</defs>
				<clipPath id="XMLID_66_">
					<use xlink:href="#XMLID_118_"  style="overflow:visible;"/>
				</clipPath>
				<g id="XMLID_114_" class="st3">
					<g id="XMLID_115_">
						<g id="XMLID_116_">
							<path id="XMLID_117_" class="st0" d="M31.1,23.1c-6.3,0.5-13.1,0.3-18.5-0.7c-0.4,2.5-0.7,5.1-0.7,7.6
								c0,6.8,1.6,12.3,4.2,15.3c3.7,0.6,8.3,0.8,12.6,0.5c0.3-0.6,0.6-1.4,0.9-2.3c-3.4,0.3-6.9,0.3-10.1,0
								c-0.3-1.3-0.6-2.8-0.8-4.5c3.6,0.3,7.4,0.3,11.1,0c0.1-1.2,0.3-2.5,0.3-3.8c-3.9,0.3-8,0.2-11.8,0c-0.1-1.4-0.1-2.8-0.1-4.4
								c0-1,0-2,0.1-3c4.2,0.3,8.8,0.3,13.2,0C31.4,26.2,31.3,24.6,31.1,23.1"/>
						</g>
					</g>
				</g>
			</g>
			<g id="XMLID_111_">
				<path id="XMLID_112_" class="st2" d="M12.6,45.2c-0.8-0.5-1.7-1-3.4-2.3c-0.8-0.7-1.8-1.6-2.5-2.4c-0.5-0.5-1.1-1.2-1.5-1.8
					c-1.4-2-1.4-2-2.1-3.3c-1.5-2.8-2.1-5.6-2.1-5.6c-0.2-1.1-0.5-2.6-0.5-3.8c-0.1-1.1-0.1-2.5,0-3.5c0.1-0.6,0.1-1.5,0.3-2.1
					C1,19.8,1.1,19,1.3,18.5c0.2-0.6,0.4-1.4,0.6-2c0.8-2.1,0.9-2.3,1.6-3.6c1-1.9,2.1-3.2,2.2-3.3C6.3,8.9,7.2,7.8,8,7.1
					c0.2-0.1,1.6-1.5,2.9-2.4C12,4,14.3,2.4,18,1.4c3.1-0.9,6.2-1.1,9.3-0.7c4.6,0.6,7.6,2.2,8.9,2.9c-3.4-1.9-7.4-2.8-11.7-2.2
					c4.3-0.6,8.4,0.3,11.7,2.2c0.8,0.5,1.9,1.2,2.7,1.8c0.7,0.5,1.9,1.5,3,2.7c0.8,0.8,1.5,1.6,2.5,3.1c0.9,1.3,1.2,2,1.9,3.4
					c0.8,1.7,1.6,4.5,1.7,5.7c0.3,2.4,0.3,2.6,0.3,4c0,1.2-0.2,2.7-0.3,3.9c-0.2,1.6-1,4.3-1.8,5.9c-0.9,1.8-1,2.1-1.9,3.4
					c-0.7,1.1-1.5,2.1-2.4,3c-3.4,3.6-7.5,6-12.2,7C21.5,49.6,15,46.6,12.6,45.2z"/>
			</g>
			<g id="XMLID_78_" class="st1">
				<defs>
					<path id="XMLID_110_" class="st1" d="M12.1,46c-0.8-0.5-1.8-1.1-3.5-2.4c-0.8-0.7-1.9-1.7-2.6-2.5c-0.5-0.5-1.1-1.2-1.5-1.8
						c-1.4-2-1.4-2-2.2-3.5c-1.6-2.9-2.1-5.8-2.1-5.9c-0.2-1.2-0.5-2.8-0.6-3.9c-0.1-1.1-0.1-2.6,0-3.7c0.1-0.6,0.1-1.5,0.3-2.2
						c0.1-0.6,0.3-1.4,0.4-1.9c0.2-0.6,0.4-1.5,0.6-2.1c0.8-2.2,1-2.4,1.7-3.7c1.1-1.9,2.2-3.4,2.2-3.4c0.7-0.8,1.7-1.9,2.5-2.7
						c0.2-0.2,1.6-1.5,3-2.4c1.2-0.8,3.6-2.4,7.4-3.5c3.2-0.9,6.4-1.1,9.7-0.7c4.7,0.6,7.9,2.3,9.3,3.1c-3.5-2-7.7-2.9-12.2-2.3
						c4.5-0.6,8.7,0.3,12.2,2.3c0.9,0.5,2,1.2,2.8,1.9c0.7,0.6,1.9,1.5,3.1,2.8c0.8,0.9,1.5,1.7,2.6,3.3c0.9,1.4,1.2,2,2,3.6
						c0.9,1.8,1.6,4.7,1.8,6c0.3,2.5,0.3,2.7,0.3,4.2c0,1.2-0.2,2.8-0.3,4c-0.3,2.4-1.3,5-1.9,6.2c-0.9,1.9-1.1,2.2-2,3.5
						c-0.8,1.1-1.6,2.2-2.5,3.1c-3.5,3.7-7.8,6.2-12.7,7.3C21.4,50.6,14.6,47.5,12.1,46z"/>
				</defs>
				<clipPath id="XMLID_67_">
					<use xlink:href="#XMLID_110_"  style="overflow:visible;"/>
				</clipPath>
				<g id="XMLID_79_" class="st4">
					<g id="XMLID_107_">
						<g id="XMLID_108_">
							<path id="XMLID_109_" class="st0" d="M12.3,42.4c-4.4-9.5-2.6-19.7-0.4-26.5c4.9,0.8,9.1,1.1,14.9,0.8
								c0.2,2.3,0.2,2.6,0.3,4.5c-2.5,0.1-6,0.2-11.2-0.2c-0.3,2.5-0.4,3.7-0.5,6.9c2.4,0.2,6,0.5,11.3,0.2c0.1,2.1,0.1,2.8,0.1,4.8
								c-2.5,0.1-6.3,0.2-11.4-0.2c0.2,3.3,0.3,4,0.8,6.9C20,39.9,23,40,27.8,39.7c-0.1,1.8-0.1,2.1-0.3,3.4
								C25.2,43.3,18.8,43.6,12.3,42.4"/>
						</g>
					</g>
				</g>
			</g>
		</g>
	</g>
</g>
<use xlink:href="#E"  width="84.6" height="168" id="XMLID_1_" x="-42.3" y="-84" transform="matrix(1 0 0 -1 -64.7504 -52.0623)" style="overflow:visible;"/>
</svg>
