<?xml version="1.0" encoding="utf-8"?>
<!-- Generator: Adobe Illustrator 19.0.0, SVG Export Plug-In . SVG Version: 6.00 Build 0)  -->
<svg version="1.1" id="Layer_1" xmlns="http://www.w3.org/2000/svg" xmlns:xlink="http://www.w3.org/1999/xlink" x="0px" y="0px"
	 viewBox="0 0 194.9 194.8" style="enable-background:new 0 0 194.9 194.8;" xml:space="preserve">
<style type="text/css">
	.st0{fill:#FF0000;}
	.st1{enable-background:new    ;}
	.st2{fill:#FFFFFF;}
	.st3{clip-path:url(#XMLID_481_);}
</style>
<symbol  id="_x32_3" viewBox="-304.9 -36.5 203.8 363.1">
	<g id="XMLID_488_">
		
			<text id="XMLID_490_" transform="matrix(1 0 0 -1 -212.0244 152.5161)" class="st0" style="font-family:'Agipo-Bold'; font-size:150px;">H</text>
	</g>
</symbol>
<g id="XMLID_281_">
	<g id="XMLID_492_">
		<g id="XMLID_520_" class="st1">
			<g id="XMLID_535_" class="st1">
				<defs>
					<path id="XMLID_539_" class="st1" d="M0,97.3c0-2.6,0.1-6.1,0.4-8.7c0.3-2.3,0.6-5.4,1-7.8c0.4-2.5,1.2-5.8,1.8-8.3
						c0.6-2.2,1.5-5.1,2.2-7.3c0.9-2.4,2.2-5.5,3.1-7.8c1-2.4,2.6-5.5,3.9-7.7c2.2-3.8,5.6-8.7,8.2-12.2c1.6-2.2,4-4.9,5.9-6.8
						c1.5-1.5,3.5-3.6,5.1-5c2.2-2,5.3-4.5,7.7-6.3c3.6-2.8,7.2-4.9,11.1-7.1c2.9-1.7,7-3.6,10.1-4.8c2-0.8,4.8-1.8,6.9-2.5
						c2.1-0.7,5-1.5,7.1-2c2-0.5,4.7-1.1,6.8-1.4c2.1-0.4,3.9-0.6,5.7-0.8C88.6,0.4,92.7,0,98.2,0c6.4,0,11.7,0.8,13.4,1
						c2.2,0.3,4.7,0.8,5.8,1c2,0.4,4.6,1.1,6.5,1.6c1.5,0.4,3.4,1,4.8,1.5c2,0.7,4.7,1.7,6.7,2.5c3.1,1.3,7,3.4,10,4.9
						c23.8,13.5,39.5,40.3,39.5,73c-0.1,51.6-39.4,98.9-87.6,105.3c48.2-6.5,87.5-53.7,87.6-105.3c0.1-32.7-15.7-59.4-39.5-73
						c2.3,1.4,5.4,3.2,7.6,4.8c1.6,1.2,3.8,2.7,5.4,4c2,1.6,4.6,3.7,6.4,5.6c1.5,1.5,3.6,3.5,5,5.1c1.7,1.9,3.8,4.4,5.3,6.4
						c4.7,6.2,7.7,11.7,8.4,13.2c1.6,3.2,3.9,7.5,6.3,14.5c1.5,4.4,2.9,10.4,3.8,14.9c0.5,2.5,0.8,5.9,1,8.5
						c0.2,2.4,0.2,5.6,0.3,7.9c0.1,2.9-0.1,6.8-0.5,9.7c-0.3,2.3-0.7,5.4-1.1,7.7c-0.5,2.5-1.2,5.8-1.9,8.3
						c-0.6,2.2-1.5,5.1-2.3,7.3c-0.9,2.4-2.2,5.5-3.2,7.8c-0.9,2.1-2.3,4.7-3.4,6.7c-1.3,2.2-3.2,5.1-4.6,7.3
						c-1.5,2.3-3.8,5.2-5.6,7.3c-2.7,3.3-6.7,7.4-9.9,10.2c-2.3,2-5.4,4.5-7.8,6.3c-1.6,1.2-3.8,2.6-5.4,3.7
						c-0.9,0.6-6.3,3.9-11,5.9c-4,1.8-7.8,3.4-14.4,5.3c-14.2,4-28.8,4.7-43.3,2.2c-10.6-1.9-18.5-5.2-21.1-6.3
						c-8.9-3.7-16.4-8.8-18.6-10.4c-2.1-1.6-4.9-3.6-6.8-5.3c-1.6-1.4-3.7-3.3-5.2-4.8c-1.8-1.8-4.1-4.2-5.7-6.2
						c-2.9-3.3-6.2-8.2-8.6-11.9c-1.4-2.1-2.9-5.1-4.1-7.3C9.3,139,7.9,136,7,133.7c-1.6-4.3-3.5-10.1-4.6-14.6
						c-1-4.1-1.7-9.7-2.1-13.9C0.1,102.8,0.1,99.6,0,97.3z"/>
				</defs>
				<clipPath id="XMLID_480_">
					<use xlink:href="#XMLID_539_"  style="overflow:visible;"/>
				</clipPath>
			</g>
			<g id="XMLID_533_">
				<path id="XMLID_534_" class="st2" d="M1.1,97.3c0-2.6,0.1-6,0.4-8.6c0.3-2.3,0.6-5.4,1-7.7c0.4-2.5,1.1-5.8,1.8-8.2
					c0.6-2.2,1.5-5.1,2.2-7.2c0.8-2.4,2.2-5.4,3.1-7.8c1-2.4,2.6-5.4,3.9-7.7c2.2-3.8,5.5-8.6,8.1-12.1c1.6-2.1,3.9-4.9,5.8-6.7
					c1.5-1.5,3.4-3.5,5-4.9c2.2-2,5.3-4.5,7.6-6.3c3.6-2.8,7.2-4.9,11-7.1c2.9-1.7,6.9-3.6,10-4.8c2-0.8,4.7-1.8,6.8-2.5
					c2.1-0.7,4.9-1.5,7.1-2c2-0.5,4.7-1,6.7-1.4c2.1-0.4,3.8-0.6,5.7-0.8c1.5-0.2,5.6-0.6,11-0.5c6.4,0,11.6,0.8,13.3,1
					c2.1,0.3,4.6,0.8,5.8,1c2,0.4,4.5,1.1,6.5,1.6c1.4,0.4,3.4,1,4.8,1.5c2,0.7,4.6,1.7,6.6,2.5c3,1.3,7,3.3,9.9,4.9
					c23.6,13.4,39.1,39.8,39.1,72.2c-0.1,51.1-39,97.8-86.7,104.3c47.7-6.4,86.6-53.2,86.7-104.3c0.1-32.4-15.5-58.8-39.1-72.2
					c2.3,1.3,5.4,3.1,7.5,4.7c1.6,1.2,3.8,2.7,5.3,4c1.9,1.6,4.5,3.7,6.3,5.5c1.5,1.5,3.5,3.5,5,5.1c1.7,1.8,3.8,4.4,5.3,6.4
					c4.7,6.2,7.6,11.5,8.3,13c1.6,3.1,3.9,7.4,6.2,14.3c1.5,4.3,2.8,10.3,3.7,14.8c0.5,2.5,0.8,5.9,1,8.4c0.2,2.4,0.2,5.5,0.3,7.9
					c0.1,2.9-0.1,6.8-0.5,9.6c-0.3,2.3-0.7,5.4-1.1,7.7c-0.5,2.5-1.2,5.8-1.9,8.2c-0.6,2.2-1.5,5.1-2.3,7.2
					c-0.9,2.4-2.2,5.4-3.2,7.7c-0.9,2-2.3,4.7-3.4,6.6c-1.3,2.2-3.1,5.1-4.5,7.2c-1.5,2.3-3.7,5.2-5.5,7.3
					c-2.7,3.2-6.6,7.3-9.8,10.1c-2.2,2-5.4,4.5-7.7,6.2c-1.6,1.2-3.7,2.6-5.4,3.6c-0.9,0.6-6.3,3.9-10.8,5.9
					c-4,1.8-7.7,3.4-14.3,5.3c-14,3.9-28.5,4.7-42.9,2.1c-10.5-1.8-18.3-5.1-20.8-6.2c-8.8-3.7-16.3-8.7-18.4-10.3
					c-2-1.5-4.8-3.5-6.7-5.3c-1.5-1.4-3.7-3.3-5.2-4.7c-1.8-1.8-4-4.2-5.6-6.1c-2.8-3.3-6.1-8.1-8.5-11.7c-1.4-2.1-2.9-5-4.1-7.2
					c-1.1-2.2-2.5-5.2-3.4-7.5c-1.5-4.3-3.5-10-4.5-14.4c-1-4.1-1.6-9.6-2.1-13.8C1.1,102.8,1.1,99.6,1.1,97.3z"/>
			</g>
			<g id="XMLID_531_">
				<path id="XMLID_532_" class="st2" d="M84.7,1.9C91.3,1,96.8,0.9,100.3,1c8,0.3,13,1.2,16.6,1.9c1.7,0.3,5,1.1,6.8,1.7
					c2.4,0.7,5.6,1.8,8,2.7c1.7,0.7,4.1,1.6,5.7,2.4c2.3,1.1,5.3,2.6,7.5,3.8c23.6,13.4,39.1,39.8,39.1,72.2
					c-0.1,51.1-39,97.8-86.7,104.3c47.7-6.4,86.6-53.2,86.7-104.3c0.1-32.4-15.5-58.8-39.1-72.2c1.6,1,3.9,2.3,5.5,3.4
					c2.5,1.7,5.8,4.2,8.2,6.1c3.3,2.6,7.2,6.6,10.2,9.7c1.9,2,4.3,4.8,5.9,7.1c1.5,2.1,3.4,4.9,4.8,7.1c1.2,1.9,2.7,4.4,3.6,6.4
					c1.1,2.3,2.5,5.3,3.5,7.6c0.9,2.1,1.9,4.9,2.6,7.1c0.8,2.4,1.6,5.6,2.2,8.1c0.5,2.2,1,5.3,1.4,7.6c0.7,4.2,1,9.8,1,14.1
					c0,4.7-0.6,10.9-1.3,15.6c-0.3,2.5-1,5.8-1.7,8.2c-0.6,2.2-1.4,5.1-2.2,7.2c-0.8,2.3-1.9,5.4-3,7.7c-1,2-2.2,4.7-3.3,6.7
					c-1.2,2.2-2.8,5-4.2,7.1c-1.2,1.8-2.9,4.2-4.2,5.9c-1.5,2-3.6,4.5-5.3,6.4c-1.4,1.5-3.4,3.6-4.9,5c-1.9,1.7-4.4,4-6.4,5.6
					c-1.5,1.2-3.7,2.8-5.3,3.9c-2.2,1.5-5.2,3.3-7.5,4.7c-4,2.4-10.1,5-10.7,5.2c-2.1,0.8-4.9,1.9-7.1,2.6c-2.1,0.7-4.9,1.5-7.1,2
					c-6.7,1.6-11.4,2.1-14.5,2.3c-0.3,0-2.9,0.3-6.6,0.3c-2.5,0-4.5,0-6.3-0.1c-3.8-0.2-8.9-0.8-11.8-1.3c-2.3-0.4-4-0.8-6-1.3
					c-4.1-1-6.3-1.7-7.5-2.2c-1.5-0.5-3.4-1.2-4.9-1.8c-1.5-0.6-3.5-1.4-4.9-2.1c-2.3-1.1-5.3-2.6-7.5-3.8c-1.7-0.9-4-2.3-5.6-3.4
					c-1.6-1.1-3.8-2.6-5.4-3.8c-2.1-1.7-5-4-7-5.8c-1.6-1.4-3.6-3.4-5-5c-1.8-1.9-4.1-4.6-5.7-6.7c-2.4-3.2-5.1-6.7-8.6-13.2
					c-2.2-3.9-4.4-9.4-6.1-13.6c-0.9-2.4-1.8-5.6-2.5-8c-0.6-2.2-1.1-5.2-1.6-7.5c-0.5-2.5-0.9-5.9-1.1-8.4c-0.2-2.6-0.4-6-0.4-8.6
					c0-2.4,0.2-5.5,0.3-7.9C1.5,86.6,2,82.8,2.6,80c1.5-6.9,2.1-9.5,4.2-15.4c2.8-7.8,6.2-13.7,6.6-14.3c2.2-3.8,5.5-8.6,8.1-12.1
					c1.5-2,3.7-4.5,5.4-6.3c6-6.6,12.4-11.4,16.7-14.3c2.2-1.5,5.2-3.4,7.6-4.6c1.5-0.8,3.4-1.8,4.9-2.5c1.8-0.8,4.2-1.9,6-2.6
					c2.4-0.9,6-2.3,10.5-3.5C74.5,3.8,79,2.6,84.7,1.9z"/>
			</g>
			<g id="XMLID_529_">
				<path id="XMLID_530_" class="st2" d="M145,13.6c-13.6-7.7-29.9-11.1-47.3-8.8C115.1,2.5,131.4,5.8,145,13.6
					c2.6,1.5,6.1,3.6,8.5,5.4c2,1.5,4.8,3.6,6.7,5.3c1.6,1.4,3.7,3.2,5.2,4.7c1.7,1.8,4,4.2,5.6,6.1c1.4,1.6,3.2,3.9,4.5,5.7
					c5.2,7.1,8,13,8.1,13.3c1.1,2.2,2.5,5.2,3.4,7.5c0.8,2.1,1.8,4.9,2.5,7.1c1.3,3.9,2.5,9.3,3.2,13.4c0.7,4.6,1.3,10.9,1.2,15.6
					c0,2.6-0.2,6-0.4,8.6c-0.2,2.3-0.7,5.4-1,7.7c-0.3,2.5-1.2,5.8-1.8,8.2c-0.6,2.2-1.5,5.1-2.2,7.2c-0.8,2.4-2.1,5.5-3.1,7.8
					c-0.9,2-2.3,4.6-3.3,6.6c-1.1,2.3-3,5.1-4.4,7.3c-1.2,1.8-3,4.1-4.3,5.9c-1.6,2.2-4,4.8-5.8,6.7c-1.4,1.5-3.4,3.5-5,4.9
					c-2.2,2-5.3,4.5-7.6,6.3c-3.6,2.8-7.3,5-11,7.1c-2.9,1.7-6.9,3.6-10,4.8c-2,0.8-4.7,1.8-6.8,2.5c-2.1,0.7-4.9,1.5-7.1,2
					c-2,0.5-4.7,1.1-6.7,1.4c-1,0.2-2.2,0.4-3.2,0.5c-1.5,0.2-3.4,0.4-4.9,0.5c-0.1,0-2.7,0.3-6.5,0.3c-2.7,0-5.1-0.1-6.3-0.1
					c-1.4-0.1-4.6-0.3-6.7-0.6c-3.5-0.4-4.1-0.6-7.9-1.3c-2.8-0.5-8.2-2-11.5-3.1c-2-0.7-4.6-1.7-6.6-2.5c-1.5-0.6-3.5-1.5-4.9-2.3
					c-2.1-1.1-4.9-2.6-6.9-3.8c-1.7-1-3.9-2.4-5.5-3.6c-3.3-2.4-6.9-5-11.6-9.5c-5.1-4.9-8.6-9.3-10.2-11.4c-1.7-2.2-4.8-6.4-8.3-13
					c-2.1-3.9-4.4-9.5-6-13.7c-0.9-2.3-1.8-5.5-2.4-7.9c-0.6-2.2-1.1-5.2-1.6-7.5c-0.5-2.5-0.9-5.9-1-8.4c-0.2-2.9-0.4-6.8-0.3-9.7
					c0.1-2.3,0.2-5.5,0.5-7.8c0.3-2.5,0.7-5.9,1.2-8.4C3.3,77,3.9,74,4.5,71.8c0.7-2.4,1.7-5.7,2.6-8c0.8-2.1,1.9-4.9,2.9-6.9
					c1.1-2.3,2.7-5.4,4-7.6c2.2-3.7,5.6-8.5,8.2-12c1.6-2.1,4.1-4.7,5.9-6.7c1.4-1.6,3.5-3.5,5-4.9c2.3-2,5.4-4.4,7.7-6.2
					c1.8-1.4,4.4-3.1,6.4-4.3c2.9-1.7,6.8-3.8,9.8-5.2c2.6-1.3,8.6-3.7,14.3-5.3C74,3.9,81.1,2,89.6,1.3c4.3-0.3,11-0.7,19.5,0.4
					c9.4,1.1,16.2,3.4,19.4,4.4c2,0.7,4.7,1.7,6.6,2.5C138.1,10,142.1,12,145,13.6z"/>
			</g>
			<g id="XMLID_527_">
				<path id="XMLID_528_" class="st2" d="M50,181.3c-1.7-1-3.9-2.3-5.5-3.4c-2.5-1.7-5.8-4.2-8.2-6.1c-3.3-2.6-7.2-6.6-10.2-9.7
					c-1.9-2-4.3-4.8-5.9-7.1c-1.5-2.1-3.5-4.9-4.8-7.1c-1.2-1.9-2.6-4.5-3.6-6.4c-1.2-2.2-2.5-5.3-3.5-7.6c-0.9-2.1-1.8-4.9-2.6-7.1
					c-0.9-2.4-1.7-5.6-2.2-8.1c-0.9-4.5-1.9-10.7-2.2-15.3c-0.3-4.2-0.4-10,0.1-14.2c0.3-2.5,0.5-5.9,1.1-8.4c0.5-2.2,1-5.3,1.6-7.5
					c0.6-2.4,1.5-5.6,2.4-8c0.8-2.1,1.8-4.9,2.8-7c1-2.3,2.5-5.3,3.7-7.4c4.1-7.5,8.6-13.1,8.7-13.1c2.7-3.3,6.4-7.6,9.5-10.5
					c1.8-1.7,4.4-4,6.4-5.6c1.5-1.2,3.6-2.8,5.3-3.9c2.2-1.5,5.2-3.4,7.5-4.7c1.5-0.9,3.4-1.9,5-2.6C60,8.6,60,8.6,64.4,6.9
					c2.1-0.8,5-1.7,7.1-2.3c8-2.2,14.8-3,18.1-3.3c2.8-0.2,10.1-0.8,19.5,0.4C113.6,2.3,117,3,117,3c1.9,0.4,4.5,1.1,6.5,1.6
					c1.3,0.3,3,0.9,4.2,1.3c4.3,1.4,7,2.6,9.8,3.9c2.3,1,5.3,2.6,7.5,3.8c-13.6-7.7-29.9-11.1-47.3-8.8c17.5-2.3,33.7,1,47.3,8.8
					c3.4,2.1,7.9,4.8,10.9,7.2c2.1,1.7,4.9,4,7,5.8c1.6,1.4,3.6,3.4,5,5c1.8,2,4.1,4.6,5.7,6.7c1.4,1.7,3,4.1,4.3,5.9
					c1.4,2.1,3.1,5,4.4,7.2c1.1,2,2.3,4.6,3.3,6.7c1.1,2.3,2.2,5.4,3.1,7.8c0.8,2.1,1.5,5.1,2.2,7.2c0.7,2.4,1.4,5.7,1.8,8.2
					c0.3,2.3,0.8,5.4,1,7.7c0.2,2.6,0.4,6,0.4,8.6c0,4.7-0.6,10.9-1.3,15.6c-0.4,2.8-1.2,6.5-2,9.2c-0.7,2.2-1.5,5.1-2.2,7.2
					c-0.8,2.3-2,5.4-3.1,7.6c-1,2-2.2,4.7-3.3,6.6c-1.2,2.2-2.9,5-4.3,7c-3.3,5-6.9,9.3-9.6,12.2c-1.4,1.5-3.4,3.5-5,5
					c-1.9,1.7-4.4,3.9-6.4,5.5c-1.5,1.2-3.7,2.8-5.3,3.9c-2.2,1.5-5.3,3.3-7.6,4.6c-3.8,2.2-9.7,4.7-10.9,5.2
					c-2.1,0.8-4.9,1.8-7,2.5c-2.1,0.6-4.8,1.4-6.9,1.9c-11.7,2.7-23.6,3.2-35.5,1.4c-8.2-1.2-14.5-3.2-16.2-3.8
					c-3.7-1.3-5.3-1.8-9.8-3.9C55.2,184.1,52.2,182.6,50,181.3z"/>
			</g>
			<g id="XMLID_521_" class="st1">
				<defs>
					<path id="XMLID_526_" class="st1" d="M49.5,182.2c-1.7-1-3.9-2.3-5.5-3.4c-2.6-1.8-5.9-4.2-8.3-6.2c-3.3-2.7-7.3-6.7-10.3-9.8
						c-1.9-2-4.3-4.9-5.9-7.2c-1.5-2.1-3.5-4.9-4.9-7.1c-1.2-1.9-2.6-4.5-3.7-6.5c-1.2-2.2-2.6-5.3-3.5-7.7c-0.9-2.1-1.8-5-2.6-7.1
						c-0.9-2.4-1.7-5.7-2.2-8.1c-0.9-4.6-1.9-10.8-2.2-15.4c-0.3-4.3-0.4-10.1,0.1-14.3c0.3-2.5,0.5-6,1.1-8.5
						c0.5-2.3,1-5.3,1.6-7.6c0.6-2.4,1.5-5.7,2.4-8c0.8-2.1,1.9-5,2.8-7c1-2.3,2.5-5.3,3.7-7.5c4.2-7.6,8.7-13.2,8.8-13.3
						c2.7-3.3,6.5-7.6,9.6-10.6c1.9-1.8,4.5-4,6.4-5.6c1.6-1.3,3.7-2.9,5.3-4c2.2-1.5,5.3-3.4,7.6-4.7c1.5-0.9,3.5-1.9,5-2.6
						c1.5-0.7,3.5-1.6,5-2.3c1.3-0.5,3-1.2,4.3-1.7c2.1-0.8,5-1.7,7.2-2.3c8.1-2.3,14.9-3,18.2-3.3c2.8-0.2,10.2-0.8,19.7,0.4
						c4.6,0.6,8,1.3,8,1.3c2,0.4,4.6,1.1,6.5,1.6c1.3,0.3,3,0.9,4.3,1.3c4.3,1.4,7.1,2.6,9.9,3.9c2.3,1,5.3,2.6,7.6,3.9
						c-13.7-7.8-30.2-11.2-47.8-8.8c17.6-2.4,34.1,1,47.8,8.8c0,0,0,0,0,0c3.4,2.1,7.9,4.9,11.1,7.3c2.2,1.7,5,4.1,7,5.9
						c1.6,1.4,3.6,3.5,5.1,5c1.8,2,4.1,4.7,5.8,6.8c1.4,1.7,3.1,4.1,4.3,6c1.4,2.1,3.2,5.1,4.4,7.3c1.1,2,2.4,4.7,3.3,6.7
						c1.1,2.3,2.3,5.4,3.1,7.8c0.8,2.2,1.6,5.1,2.2,7.3c0.7,2.4,1.4,5.8,1.8,8.3c0.3,2.3,0.8,5.4,1,7.8c0.2,2.6,0.4,6.1,0.4,8.7
						c0,4.7-0.6,11-1.3,15.7c-0.4,2.8-1.2,6.5-2,9.3c-0.7,2.2-1.5,5.1-2.3,7.3c-0.8,2.3-2,5.5-3.1,7.7c-1,2-2.3,4.7-3.4,6.7
						c-1.2,2.2-2.9,5-4.3,7.1c-3.4,5.1-7,9.4-9.7,12.3c-1.5,1.5-3.4,3.6-5,5c-1.9,1.7-4.5,4-6.5,5.6c-1.6,1.2-3.7,2.8-5.4,3.9
						c-2.2,1.5-5.3,3.3-7.7,4.7c-3.8,2.2-9.8,4.7-11,5.2c-2.1,0.8-4.9,1.8-7.1,2.5c-2.1,0.6-4.9,1.4-7,1.9
						c-11.8,2.7-23.8,3.2-35.9,1.4c-8.2-1.2-14.6-3.3-16.4-3.9c-3.7-1.3-5.3-1.9-9.9-3.9C54.7,185,51.7,183.4,49.5,182.2z"/>
				</defs>
				<clipPath id="XMLID_481_">
					<use xlink:href="#XMLID_526_"  style="overflow:visible;"/>
				</clipPath>
				<g id="XMLID_522_" class="st3">
					<g id="XMLID_523_">
						<g id="XMLID_524_">
							<path id="XMLID_525_" class="st0" d="M154,153.8c1-7.9,2.5-19.8-1.8-41.9c-8.6,3.2-18.3,6.9-40.1,11.9
								c3,18,4.7,29.1,5.5,40.4c-5.3,1-11.9,2.3-20.1,3.4c-4.4-20.2-13.5-62.1-15.1-99.5c5-0.8,11.3-1.8,18.6-3.3
								c0.9,4.8,0.9,4.8,7.9,41.6c12.9-2.9,23.9-5.6,39.1-11.3c-3.3-10.4-6.4-20.2-15.5-39.4c4-1.7,8.5-3.6,13.2-6.3
								c28.2,44.4,28.8,77.2,24.3,96.9C165.8,148.4,161.2,150.9,154,153.8"/>
						</g>
					</g>
				</g>
			</g>
		</g>
	</g>
</g>
<use xlink:href="#_x32_3"  width="203.8" height="363.1" id="XMLID_282_" x="-304.9" y="-36.5" transform="matrix(1 0 0 -1 -153.2471 292.4837)" style="overflow:visible;"/>
</svg>
