<?xml version="1.0" encoding="utf-8"?>
<!-- Generator: Adobe Illustrator 19.0.0, SVG Export Plug-In . SVG Version: 6.00 Build 0)  -->
<svg version="1.1" id="Layer_1" xmlns="http://www.w3.org/2000/svg" xmlns:xlink="http://www.w3.org/1999/xlink" x="0px" y="0px"
	 viewBox="0 0 725 120.1" style="enable-background:new 0 0 725 120.1;" xml:space="preserve">
<style type="text/css">
	.st0{fill:#FFFFFF;}
</style>
<g>
	<path class="st0" d="M410.9,19.6h4.3l0-12.1h4.2v15.3H398V7.5h4.5l0,12.1h4.4V7.5h4.1V19.6z"/>
	<path class="st0" d="M423.2,7.5h4.4v6.4h0.2l4.7-6.4h5.1l-5.9,7.3l6.3,8h-5.3l-4.9-6.7h-0.2v6.7h-4.4V7.5z"/>
	<path class="st0" d="M446.4,7.2c5.4,0,7.9,4.4,7.9,8c0,4.2-2.7,8.3-7.9,8.3c-5,0-8-3.7-8-8.2C438.4,11.4,441,7.2,446.4,7.2z
		 M446.4,20.4c2.2,0,3.5-1.7,3.5-5.2c0-3.3-1.4-5-3.5-5c-1.8,0-3.5,1.4-3.5,5.1C442.9,18,443.8,20.4,446.4,20.4z"/>
	<path class="st0" d="M458.5,7.5h12.4v15.3h-4.2l0-12.1h-4.1l-0.2,5.5c-0.2,4.1-1.4,6.8-4.9,6.8c-0.6,0-1.5-0.1-2-0.2v-2.9
		c2.2,0.2,2.7-1.6,2.8-3.9L458.5,7.5z"/>
	<path class="st0" d="M483.6,22.8c0.1-0.5,0.1-1.1,0.1-1.8h-0.2c-1.3,1.3-2.8,2.1-4.6,2.1c-3,0-4.9-1.8-4.9-4.7c0-3,2.6-4.7,5.7-4.8
		c1.5,0,3,0.2,4.1,0.5v-1.2c-0.1-2.1-1-3.1-2.6-3.1c-1.7,0-2.4,0.9-2.3,2.3h-4.7c0.5-2.8,3-4.9,7-4.9c3.5,0,6.7,1.7,6.7,5.7v7.7
		c0,0.6,0,1.6,0.1,2.2H483.6z M483.7,16.3c-0.9-0.2-1.9-0.3-2.9-0.3c-1.7,0.1-2.6,1-2.6,2.3c0,1.1,0.8,2,2.3,2
		c1.6,0,2.6-0.9,3.2-1.8V16.3z"/>
</g>
<g>
	<path class="st0" d="M398,37.8h14v15.3h-4.4l0-12h-5.2l0,12H398V37.8z"/>
	<path class="st0" d="M419.2,46.4c0.2,2.3,0.8,4.6,3.1,4.6c1.5,0,2.3-1,2.5-2.3h4.1c-0.6,2.7-2.9,5.1-6.7,5.1
		c-4.4,0-7.3-3.5-7.3-8.4c0-4.2,2.8-8,7.3-8c5.1,0,7.1,4.2,7.1,7.6c0,0.4,0,0.9-0.1,1.5H419.2z M424.9,43.7c0-1.7-0.8-3.4-2.8-3.4
		c-1.9,0-2.8,1.7-2.9,3.4H424.9z"/>
	<path class="st0" d="M440.9,53.5c-1.8,0-3.2-0.7-4.2-2h-0.2c0,0.2,0,0.3,0,0.5v1.2v5.6H432l0-18.1l-0.1-2.9h4.2l0.1,2h0.2
		c0.9-1.5,2.6-2.3,4.2-2.3c3.9,0,6.4,3.2,6.4,8C447.1,50.5,444.4,53.5,440.9,53.5z M439.6,40.5c-1.8,0-2.9,1.8-3.1,3.2v3.5
		c0.2,1.3,1.3,3.2,3.2,3.2c2,0,3-2.1,3-4.9C442.7,42.5,441.7,40.5,439.6,40.5z"/>
	<path class="st0" d="M458.8,43.3c0-1.4-0.6-2.8-2.1-2.8c-2,0-2.7,2.4-2.7,5.1c0,2.8,0.7,4.9,2.8,4.9c1.4,0,2.2-1.4,2.3-2.8h4.4
		c-0.7,3.5-2.9,5.8-6.7,5.8c-4.5,0-7.4-3.2-7.4-7.9c0-5.2,3.2-8.1,7.3-8.1c3.3,0,6,2.2,6.5,5.7H458.8z"/>
	<path class="st0" d="M466,37.8h14v15.3h-4.4l0-12h-5.2l0,12H466V37.8z"/>
	<path class="st0" d="M487.2,46.4c0.1,2.3,0.8,4.6,3.1,4.6c1.5,0,2.3-1,2.5-2.3h4.1c-0.6,2.7-2.9,5.1-6.7,5.1
		c-4.4,0-7.3-3.5-7.3-8.4c0-4.2,2.8-8,7.3-8c5.1,0,7.1,4.2,7.1,7.6c0,0.4,0,0.9-0.1,1.5H487.2z M493,43.7c0-1.7-0.8-3.4-2.8-3.4
		c-1.8,0-2.8,1.7-2.9,3.4H493z"/>
	<path class="st0" d="M500.1,37.8h4.4v6.4h0.2l4.7-6.4h5.1l-5.9,7.3l6.3,8h-5.3l-4.9-6.7h-0.2v6.7h-4.4V37.8z"/>
	<path class="st0" d="M516,37.8h13.5V41l-4.5-0.1v12.3h-4.5V40.9L516,41V37.8z"/>
	<path class="st0" d="M531.6,37.8h3.9l0,10h0.2l5.4-10h4.9v15.3h-3.9l0-10.4h-0.2l-5.5,10.4h-4.8V37.8z"/>
	<path class="st0" d="M549.7,37.8h6.5c3.6,0,6.3,1.6,6.3,3.9c0,1.5-1,2.8-3.4,3.3v0.2c2.7,0.5,3.8,1.9,3.8,3.6
		c0,2.7-2.8,4.3-6.8,4.3h-6.4V37.8z M554.1,44.1l1.2-0.1c1.8-0.1,2.8-0.8,2.8-2c0-1.3-1.2-1.8-2.4-1.8l-1.6,0V44.1z M554.1,46.5v4.3
		l1.5-0.1c1.8-0.1,2.8-0.8,2.8-2c0-1.3-0.9-2.1-3-2.2L554.1,46.5z"/>
	<path class="st0" d="M575.2,53.2v-6.5h-5.1v6.5h-4.4V37.8h4.4v5.7h5.1v-5.7h4.4v15.3H575.2z"/>
	<path class="st0" d="M587.6,37.8v5.8h2.3c3.3,0,5.6,1.8,5.6,4.6c0,2.8-2.4,5-6,5h-6.3V37.8H587.6z M588.8,50.7
		c1.7-0.1,2.5-1,2.5-2.3c0-1.4-1-2.3-2.4-2.3l-1.2,0v4.8L588.8,50.7z M597.2,37.8h4.4v15.3h-4.4V37.8z"/>
	<path class="st0" d="M619,53.2h-5.1l-2.6-4.9H611l-2.7,4.9h-4.7l4.7-7.9l-4.7-7.5h5.3l2.2,4.5h0.2l2.4-4.5h4.7l-4.6,7.5L619,53.2z"
		/>
</g>
<g>
	<path class="st0" d="M398,68.2h3.9l0,10h0.2l5.4-10h4.9v15.3h-3.9l0-10.4h-0.2l-5.5,10.4H398V68.2z"/>
	<path class="st0" d="M424.8,73.6c0-1.4-0.6-2.8-2.1-2.8c-2,0-2.7,2.4-2.7,5.1c0,2.8,0.7,4.9,2.8,4.9c1.4,0,2.2-1.4,2.3-2.8h4.4
		c-0.7,3.5-2.9,5.8-6.7,5.8c-4.5,0-7.4-3.2-7.4-7.9c0-5.2,3.2-8.1,7.3-8.1c3.3,0,6,2.2,6.5,5.7H424.8z"/>
	<path class="st0" d="M440.7,73.6c0-1.4-0.6-2.8-2.1-2.8c-2,0-2.7,2.4-2.7,5.1c0,2.8,0.7,4.9,2.8,4.9c1.4,0,2.2-1.4,2.3-2.8h4.4
		c-0.7,3.5-2.9,5.8-6.7,5.8c-4.5,0-7.4-3.2-7.4-7.9c0-5.2,3.2-8.1,7.3-8.1c3.3,0,6,2.2,6.5,5.7H440.7z"/>
	<path class="st0" d="M449.7,68.2H462v15.3h-4.2l0-12.1h-4.1l-0.2,5.5c-0.2,4.1-1.4,6.8-4.9,6.8c-0.6,0-1.5-0.1-2-0.2v-2.9
		c2.2,0.2,2.7-1.6,2.8-3.9L449.7,68.2z"/>
	<path class="st0" d="M469.3,76.8c0.2,2.3,0.8,4.6,3.1,4.6c1.5,0,2.3-1,2.5-2.3h4.1c-0.6,2.7-2.9,5.1-6.7,5.1
		c-4.4,0-7.3-3.5-7.3-8.4c0-4.2,2.8-8,7.3-8c5.1,0,7.1,4.2,7.1,7.6c0,0.4,0,0.9-0.1,1.5H469.3z M475,74c0-1.7-0.8-3.4-2.8-3.4
		c-1.9,0-2.8,1.7-2.9,3.4H475z"/>
	<path class="st0" d="M495.3,83.5h-10.5v3.7H481l-0.2-7h0.7c2.2,0,3-2,3.3-4.2l0.9-7.8h11.1v12h2.3l-0.2,7h-3.7V83.5z M492.9,71.3
		h-3.6l-0.6,5.1c-0.2,1.7-0.6,3-1.4,3.9h5.6L492.9,71.3z"/>
	<path class="st0" d="M508.7,67.8c5.4,0,7.9,4.4,7.9,8c0,4.2-2.7,8.3-7.9,8.3c-5,0-8-3.7-8-8.2C500.8,72.1,503.4,67.8,508.7,67.8z
		 M508.7,81.1c2.2,0,3.5-1.7,3.5-5.2c0-3.3-1.4-5-3.5-5c-1.8,0-3.5,1.4-3.5,5.1C505.2,78.6,506.2,81.1,508.7,81.1z"/>
	<path class="st0" d="M519.5,68.2h6.5c3.6,0,6.3,1.6,6.3,3.9c0,1.5-1,2.8-3.4,3.3v0.2c2.7,0.5,3.8,1.9,3.8,3.6
		c0,2.7-2.8,4.3-6.8,4.3h-6.4V68.2z M523.9,74.5l1.2-0.1c1.8-0.1,2.8-0.8,2.8-2c0-1.3-1.2-1.8-2.4-1.8l-1.6,0V74.5z M523.9,76.8v4.3
		l1.5-0.1c1.8-0.1,2.8-0.8,2.8-2c0-1.3-0.9-2.1-3-2.2L523.9,76.8z"/>
	<path class="st0" d="M544.6,83.5c0.1-0.5,0.1-1.1,0.1-1.8h-0.2c-1.3,1.3-2.8,2.1-4.6,2.1c-3,0-4.9-1.8-4.9-4.7c0-3,2.6-4.7,5.7-4.8
		c1.5,0,3,0.2,4.1,0.5v-1.2c-0.1-2.1-1-3.1-2.6-3.1s-2.4,0.9-2.3,2.3h-4.7c0.5-2.8,3-4.9,7-4.9c3.5,0,6.7,1.7,6.7,5.7v7.7
		c0,0.6,0,1.6,0.1,2.2H544.6z M544.7,77c-0.9-0.2-1.9-0.3-2.9-0.3c-1.7,0.1-2.6,1-2.6,2.3c0,1.1,0.8,2,2.3,2c1.6,0,2.6-0.9,3.2-1.8
		V77z"/>
	<path class="st0" d="M561.9,83.5v-6.5h-5.1v6.5h-4.4V68.2h4.4v5.7h5.1v-5.7h4.4v15.3H561.9z"/>
	<path class="st0" d="M569.9,68.2h3.9l0,10h0.2l5.4-10h4.9v15.3h-3.9l0-10.4h-0.2l-5.5,10.4h-4.8V68.2z"/>
	<path class="st0" d="M588,68.2h3.9l0,10h0.2l5.4-10h4.9v15.3h-3.9l0-10.4h-0.2l-5.5,10.4H588V68.2z M597.3,61.3h2.4
		c0.1,3.4-1.6,5.4-4.5,5.4c-2.9,0-4.6-2-4.5-5.4h2.4c0,0.5,0.2,2.5,2.1,2.5S597.3,61.8,597.3,61.3z"/>
</g>
<g>
	<path class="st0" d="M58,17.4c-0.1,1.2,0.9,2,2.4,2c1.3,0,2-0.7,2-1.5c0-1.1-1-1.4-2.5-1.9c-3.2-0.9-5.9-2.1-5.9-5
		c0-2.9,2.8-4.9,6.2-4.9c3,0,5.9,1.1,6.1,4.6h-4.2c0-1.4-1.1-1.9-2-1.9c-1,0-1.9,0.6-1.9,1.6c0,1.1,1,1.4,2.7,1.9
		c3.2,1,5.7,2.1,5.7,5c0,3.2-3,4.9-6.4,4.9c-2.9,0-6.4-1.2-6.5-4.9H58z"/>
	<path class="st0" d="M78.1,12c0-1.4-0.6-2.8-2.1-2.8c-2,0-2.7,2.4-2.7,5.1c0,2.8,0.7,4.9,2.8,4.9c1.4,0,2.2-1.4,2.3-2.8h4.4
		c-0.7,3.5-2.9,5.8-6.7,5.8c-4.5,0-7.4-3.2-7.4-7.9c0-5.2,3.2-8.1,7.3-8.1c3.3,0,6,2.2,6.5,5.7H78.1z"/>
	<path class="st0" d="M85.4,0h4.4v6.6v1.5c0,0.2,0,0.5,0,0.7H90c1-1.3,2.3-2.4,4.4-2.4c2,0,4.7,1,4.7,5.4v10.2h-4.5V11.8
		c0-1.5-0.8-2.3-1.9-2.3c-1.5,0-2.5,1.2-3,3.4v9h-4.5V0z"/>
	<path class="st0" d="M109.9,6.3c5.4,0,7.9,4.4,7.9,8c0,4.2-2.7,8.3-7.9,8.3c-5,0-8-3.7-8-8.2C101.9,10.5,104.5,6.3,109.9,6.3z
		 M109.9,19.5c2.2,0,3.5-1.7,3.5-5.2c0-3.3-1.4-5-3.5-5c-1.8,0-3.5,1.4-3.5,5.1C106.4,17,107.3,19.5,109.9,19.5z"/>
	<path class="st0" d="M127.8,6.3c5.4,0,7.9,4.4,7.9,8c0,4.2-2.7,8.3-7.9,8.3c-5,0-8-3.7-8-8.2C119.9,10.5,122.5,6.3,127.8,6.3z
		 M127.8,19.5c2.2,0,3.5-1.7,3.5-5.2c0-3.3-1.4-5-3.5-5c-1.8,0-3.5,1.4-3.5,5.1C124.4,17,125.3,19.5,127.8,19.5z"/>
	<path class="st0" d="M143.2,21.9h-4.5V0h4.1l0.4,6.6V21.9z"/>
</g>
<g>
	<path class="st0" d="M62.1,36.6c5.4,0,7.9,4.4,7.9,8c0,4.2-2.7,8.3-7.9,8.3c-5,0-8-3.7-8-8.2C54.1,40.8,56.7,36.6,62.1,36.6z
		 M62.1,49.8c2.2,0,3.5-1.7,3.5-5.2c0-3.3-1.4-5-3.5-5c-1.8,0-3.5,1.4-3.5,5.1C58.6,47.4,59.5,49.8,62.1,49.8z"/>
	<path class="st0" d="M80.6,33.4c-0.2,0-0.7-0.1-0.9-0.1c-1.5,0-1.7,0.9-1.7,1.6v1.9h2.4V40h-2.4v12.3h-4.5V40h-2.3v-3.1h2.3v-2
		c0-2.9,1.5-4.8,4.7-4.8c0.6,0,1.8,0.1,2.4,0.2V33.4z"/>
	<path class="st0" d="M99.1,52.3c0.1-0.5,0.1-1.1,0.1-1.8H99c-1.3,1.3-2.8,2.1-4.6,2.1c-3,0-4.9-1.8-4.9-4.7c0-3,2.6-4.7,5.7-4.8
		c1.5,0,3,0.2,4.1,0.5v-1.2c-0.1-2.1-1-3.1-2.6-3.1c-1.7,0-2.4,0.9-2.3,2.3h-4.7c0.5-2.8,3-4.9,7-4.9c3.5,0,6.7,1.7,6.7,5.7V50
		c0,0.6,0,1.6,0.1,2.2H99.1z M99.2,45.8c-0.9-0.2-1.9-0.3-2.9-0.3c-1.7,0.1-2.6,1-2.6,2.3c0,1.1,0.8,2,2.3,2c1.6,0,2.6-0.9,3.2-1.8
		V45.8z"/>
	<path class="st0" d="M116.9,30.3h4.5v19.2l0.1,2.7h-4.2l-0.1-1.9H117c-0.9,1.5-2.4,2.3-4.1,2.3c-4.1,0-6.6-3.3-6.6-8.1
		c0-5,2.7-7.9,6.3-7.9c1.7,0,3,0.7,4,2h0.2v-0.5c0-0.4,0-0.7,0-1.2V30.3z M113.8,49.6c1.8,0,2.9-1.8,3.1-3.2v-3.5
		c-0.2-1.3-1.3-3.2-3.2-3.2c-1.9,0-3,2.1-3,4.9C110.7,47.6,111.8,49.6,113.8,49.6z"/>
	<path class="st0" d="M123.4,36.9h4.9l3.1,10h0.2l2.9-10h4.4l-5.2,15.4h-4.4L123.4,36.9z"/>
	<path class="st0" d="M149.4,52.3c0.1-0.5,0.1-1.1,0.1-1.8h-0.2c-1.3,1.3-2.8,2.1-4.6,2.1c-3,0-4.9-1.8-4.9-4.7c0-3,2.6-4.7,5.7-4.8
		c1.5,0,3,0.2,4.1,0.5v-1.2c-0.1-2.1-1-3.1-2.6-3.1s-2.4,0.9-2.3,2.3h-4.7c0.5-2.8,3-4.9,7-4.9c3.5,0,6.7,1.7,6.7,5.7V50
		c0,0.6,0,1.6,0.1,2.2H149.4z M149.5,45.8c-0.9-0.2-1.9-0.3-2.9-0.3c-1.7,0.1-2.6,1-2.6,2.3c0,1.1,0.8,2,2.3,2
		c1.6,0,2.6-0.9,3.2-1.8V45.8z"/>
	<path class="st0" d="M157.2,39.5c0-0.6,0-1.3,0-1.8c0-0.3,0-0.5,0-0.8h4.4l0.1,2.3h0.2c1-1.3,2.2-2.5,4.4-2.5
		c2.4,0,4.8,1.3,4.8,5.6v10h-4.6V42.1c0-1.5-0.7-2.2-1.8-2.2c-1.5,0-2.5,1.5-2.9,3.6v8.9h-4.5V39.5z"/>
	<path class="st0" d="M183.4,42.4c0-1.4-0.6-2.8-2.1-2.8c-2,0-2.7,2.4-2.7,5.1c0,2.8,0.7,4.9,2.8,4.9c1.4,0,2.2-1.4,2.3-2.8h4.4
		c-0.7,3.5-2.9,5.8-6.7,5.8c-4.5,0-7.4-3.2-7.4-7.9c0-5.2,3.2-8.1,7.3-8.1c3.3,0,6,2.2,6.5,5.7H183.4z"/>
	<path class="st0" d="M194.2,45.5c0.2,2.3,0.8,4.6,3.1,4.6c1.5,0,2.3-1,2.5-2.3h4.1c-0.6,2.7-2.9,5.1-6.7,5.1
		c-4.4,0-7.3-3.5-7.3-8.4c0-4.2,2.8-8,7.3-8c5.1,0,7.1,4.2,7.1,7.6c0,0.4,0,0.9-0.1,1.5H194.2z M199.9,42.8c0-1.7-0.8-3.4-2.8-3.4
		c-1.9,0-2.8,1.7-2.9,3.4H199.9z"/>
	<path class="st0" d="M217,30.3h4.5v19.2l0.1,2.7h-4.2l-0.1-1.9h-0.2c-0.9,1.5-2.4,2.3-4.1,2.3c-4.1,0-6.6-3.3-6.6-8.1
		c0-5,2.7-7.9,6.3-7.9c1.7,0,3,0.7,4,2h0.2v-0.5c0-0.4,0-0.7,0-1.2V30.3z M213.9,49.6c1.8,0,2.9-1.8,3.1-3.2v-3.5
		c-0.2-1.3-1.3-3.2-3.2-3.2c-1.9,0-3,2.1-3,4.9C210.9,47.6,212,49.6,213.9,49.6z"/>
</g>
<g>
	<path class="st0" d="M58,78.1c-0.1,1.2,0.9,2,2.4,2c1.3,0,2-0.7,2-1.5c0-1.1-1-1.4-2.5-1.9c-3.2-0.9-5.9-2.1-5.9-5
		c0-2.9,2.8-4.9,6.2-4.9c3,0,5.9,1.1,6.1,4.6h-4.2c0-1.4-1.1-1.9-2-1.9c-1,0-1.9,0.6-1.9,1.6c0,1.1,1,1.4,2.7,1.9
		c3.2,1,5.7,2.1,5.7,5c0,3.2-3,4.9-6.4,4.9c-2.9,0-6.4-1.2-6.5-4.9H58z"/>
	<path class="st0" d="M68,67.3h2.8l1.1-4.7h3.3v4.7H79v3.1h-3.8v7.9c0,0.8,0.4,1.2,1.2,1.2c0.9,0,1.7-0.3,2.5-0.5l-0.1,3
		c-0.8,0.5-2.1,1-3.4,1c-3,0-4.7-1.6-4.7-4.6v-8H68V67.3z"/>
	<path class="st0" d="M95.3,79.8c0,0.7,0,1.4,0.1,1.9l0.1,0.9h-4.5l-0.1-2.2h-0.2c-1,1.3-2.2,2.5-4.4,2.5c-2.3,0-4.7-1.3-4.7-5.5
		V67.3H86v10.3c0,1.5,0.7,2.2,1.8,2.2c1.5,0,2.5-1.5,2.9-3.5v-8.9h4.6V79.8z"/>
	<path class="st0" d="M108.9,60.7h4.5v19.2l0.1,2.7h-4.2l-0.1-1.9h-0.2c-0.9,1.5-2.4,2.3-4.1,2.3c-4.1,0-6.6-3.3-6.6-8.1
		c0-5,2.7-7.9,6.3-7.9c1.7,0,3,0.7,4,2h0.2v-0.5c0-0.4,0-0.7,0-1.2V60.7z M105.8,79.9c1.8,0,2.9-1.8,3.1-3.2v-3.5
		c-0.2-1.3-1.3-3.2-3.2-3.2c-1.9,0-3,2.1-3,4.9C102.7,77.9,103.8,79.9,105.8,79.9z"/>
	<path class="st0" d="M119.3,60.4c1.3,0,2.5,0.9,2.5,2.4c0,1.5-1.2,2.4-2.5,2.4c-1.4,0-2.5-0.9-2.5-2.4
		C116.8,61.3,117.9,60.4,119.3,60.4z M121.5,67.3v15.3H117V67.3H121.5z"/>
	<path class="st0" d="M128.8,75.8c0.2,2.3,0.8,4.6,3.1,4.6c1.5,0,2.3-1,2.5-2.3h4.1c-0.6,2.7-2.9,5.1-6.7,5.1
		c-4.4,0-7.3-3.5-7.3-8.4c0-4.2,2.8-8,7.3-8c5.1,0,7.1,4.2,7.1,7.6c0,0.4,0,0.9-0.1,1.5H128.8z M134.5,73.1c0-1.7-0.8-3.4-2.8-3.4
		c-1.9,0-2.8,1.7-2.9,3.4H134.5z"/>
	<path class="st0" d="M144.9,78.1c-0.1,1.2,0.9,2,2.4,2c1.3,0,2-0.7,2-1.5c0-1.1-1-1.4-2.5-1.9c-3.2-0.9-5.9-2.1-5.9-5
		c0-2.9,2.8-4.9,6.2-4.9c3,0,5.9,1.1,6.1,4.6h-4.2c0-1.4-1.1-1.9-2-1.9c-1,0-1.9,0.6-1.9,1.6c0,1.1,1,1.4,2.7,1.9
		c3.2,1,5.7,2.1,5.7,5c0,3.2-3,4.9-6.4,4.9c-2.9,0-6.4-1.2-6.5-4.9H144.9z"/>
</g>
<g>
	<rect y="7.5" class="st0" width="38.3" height="112.6"/>
</g>
<g>
	<rect x="342.5" y="7.5" class="st0" width="38.3" height="112.6"/>
</g>
<g>
	<rect x="686.7" y="7.5" class="st0" width="38.3" height="108.8"/>
</g>
<g>
	<rect y="698.6" width="24" height="141"/>
</g>
<g>
	<rect x="214.5" y="698.6" width="24" height="141"/>
</g>
<g>
	<rect x="430" y="698.6" width="24" height="141"/>
</g>
<g>
	<g>
		<rect x="113.9" y="1385.3" width="16" height="47"/>
	</g>
	<g>
		<rect x="147.8" y="1385.3" width="16" height="47"/>
	</g>
	<g>
		<rect x="181.7" y="1385.3" width="16" height="47"/>
	</g>
	<g>
		<path d="M221.1,1392.1h2.7l0-7.6h2.7v9.6H213v-9.6h2.8l0,7.6h2.8v-7.6h2.6V1392.1z"/>
		<path d="M228.8,1384.6h2.8v4h0.2l2.9-4h3.2l-3.7,4.6l4,5h-3.3l-3.1-4.2h-0.2v4.2h-2.8V1384.6z"/>
		<path d="M243.3,1384.3c3.4,0,4.9,2.8,4.9,5c0,2.6-1.7,5.2-4.9,5.2c-3.1,0-5-2.3-5-5.1C238.3,1387,240,1384.3,243.3,1384.3z
			 M243.3,1392.6c1.4,0,2.2-1.1,2.2-3.3c0-2.1-0.9-3.2-2.2-3.2c-1.1,0-2.2,0.9-2.2,3.2C241.1,1391.1,241.7,1392.6,243.3,1392.6z"/>
		<path d="M250.9,1384.6h7.8v9.6H256l0-7.6h-2.5l-0.1,3.5c-0.1,2.6-0.9,4.2-3.1,4.2c-0.4,0-0.9-0.1-1.3-0.2v-1.8
			c1.4,0.1,1.7-1,1.8-2.5L250.9,1384.6z"/>
		<path d="M266.6,1394.2c0.1-0.3,0.1-0.7,0.1-1.1h-0.2c-0.8,0.8-1.7,1.3-2.9,1.3c-1.9,0-3.1-1.1-3.1-2.9c0-1.9,1.6-3,3.6-3
			c0.9,0,1.9,0.1,2.6,0.3v-0.8c-0.1-1.3-0.6-1.9-1.7-1.9c-1,0-1.5,0.6-1.4,1.4h-2.9c0.3-1.7,1.9-3.1,4.4-3.1c2.2,0,4.2,1.1,4.2,3.6
			v4.8c0,0.4,0,1,0.1,1.4H266.6z M266.7,1390.1c-0.6-0.1-1.2-0.2-1.8-0.2c-1.1,0.1-1.6,0.6-1.6,1.4c0,0.7,0.5,1.3,1.4,1.3
			c1,0,1.6-0.6,2-1.1V1390.1z"/>
	</g>
	<g>
		<path d="M213,1403.6h8.7v9.6H219l0-7.5h-3.2l0,7.5H213V1403.6z"/>
		<path d="M226.3,1408.9c0.1,1.4,0.5,2.9,1.9,2.9c0.9,0,1.4-0.6,1.5-1.5h2.6c-0.4,1.7-1.8,3.2-4.2,3.2c-2.7,0-4.6-2.2-4.6-5.2
			c0-2.7,1.7-5,4.6-5c3.2,0,4.5,2.6,4.5,4.7c0,0.2,0,0.6-0.1,0.9H226.3z M229.9,1407.2c0-1-0.5-2.1-1.7-2.1c-1.2,0-1.7,1.1-1.8,2.1
			H229.9z"/>
		<path d="M239.9,1413.3c-1.1,0-2-0.4-2.6-1.3h-0.2c0,0.1,0,0.2,0,0.3v0.8v3.5h-2.8l0-11.3l-0.1-1.8h2.7l0,1.3h0.2
			c0.6-0.9,1.6-1.4,2.7-1.4c2.5,0,4,2,4,5C243.8,1411.5,242.1,1413.3,239.9,1413.3z M239.1,1405.2c-1.1,0-1.8,1.1-1.9,2v2.2
			c0.1,0.8,0.8,2,2,2c1.3,0,1.9-1.3,1.9-3.1C241,1406.5,240.4,1405.2,239.1,1405.2z"/>
		<path d="M251.1,1407c0-0.9-0.4-1.7-1.3-1.7c-1.3,0-1.7,1.5-1.7,3.2c0,1.7,0.5,3.1,1.7,3.1c0.9,0,1.4-0.9,1.4-1.8h2.8
			c-0.4,2.2-1.8,3.6-4.2,3.6c-2.8,0-4.6-2-4.6-4.9c0-3.2,2-5.1,4.6-5.1c2.1,0,3.8,1.3,4.1,3.6H251.1z"/>
		<path d="M255.6,1403.6h8.7v9.6h-2.8l0-7.5h-3.2l0,7.5h-2.8V1403.6z"/>
		<path d="M268.9,1408.9c0.1,1.4,0.5,2.9,1.9,2.9c0.9,0,1.4-0.6,1.5-1.5h2.6c-0.4,1.7-1.8,3.2-4.2,3.2c-2.7,0-4.6-2.2-4.6-5.2
			c0-2.7,1.7-5,4.6-5c3.2,0,4.5,2.6,4.5,4.7c0,0.2,0,0.6-0.1,0.9H268.9z M272.5,1407.2c0-1-0.5-2.1-1.7-2.1c-1.2,0-1.7,1.1-1.8,2.1
			H272.5z"/>
		<path d="M277,1403.6h2.8v4h0.2l2.9-4h3.2l-3.7,4.6l4,5H283l-3.1-4.2h-0.2v4.2H277V1403.6z"/>
		<path d="M286.9,1403.6h8.5v2l-2.8,0v7.7h-2.8v-7.7l-2.8,0V1403.6z"/>
		<path d="M296.7,1403.6h2.5l0,6.2h0.2l3.4-6.2h3.1v9.6h-2.5l0-6.5h-0.2l-3.4,6.5h-3V1403.6z"/>
		<path d="M308,1403.6h4.1c2.3,0,3.9,1,3.9,2.4c0,1-0.6,1.7-2.1,2.1v0.2c1.7,0.3,2.4,1.2,2.4,2.3c0,1.7-1.8,2.7-4.3,2.7h-4V1403.6z
			 M310.8,1407.5l0.7,0c1.1-0.1,1.8-0.5,1.8-1.3c0-0.8-0.8-1.1-1.5-1.2l-1,0V1407.5z M310.8,1409v2.7l0.9,0c1.1-0.1,1.7-0.5,1.7-1.3
			c0-0.8-0.6-1.3-1.9-1.3L310.8,1409z"/>
		<path d="M324,1413.2v-4h-3.2v4h-2.7v-9.6h2.7v3.6h3.2v-3.6h2.7v9.6H324z"/>
		<path d="M331.8,1403.6v3.6h1.5c2.1,0,3.5,1.2,3.5,2.9c0,1.7-1.5,3.1-3.8,3.1h-4v-9.6H331.8z M332.5,1411.6
			c1.1-0.1,1.6-0.6,1.6-1.5c0-0.9-0.6-1.4-1.5-1.5l-0.8,0v3L332.5,1411.6z M337.8,1403.6h2.7v9.6h-2.7V1403.6z"/>
		<path d="M351.4,1413.2h-3.2l-1.6-3.1h-0.2l-1.7,3.1h-2.9l3-4.9l-2.9-4.7h3.3l1.3,2.8h0.1l1.5-2.8h2.9l-2.9,4.7L351.4,1413.2z"/>
	</g>
	<g>
		<path d="M213,1422.6h2.5l0,6.2h0.2l3.4-6.2h3.1v9.6h-2.5l0-6.5h-0.2l-3.4,6.5h-3V1422.6z"/>
		<path d="M229.8,1426c0-0.9-0.4-1.7-1.3-1.7c-1.3,0-1.7,1.5-1.7,3.2c0,1.7,0.5,3.1,1.7,3.1c0.9,0,1.4-0.9,1.4-1.8h2.8
			c-0.4,2.2-1.8,3.6-4.2,3.6c-2.8,0-4.6-2-4.6-4.9c0-3.2,2-5.1,4.6-5.1c2.1,0,3.8,1.3,4.1,3.6H229.8z"/>
		<path d="M239.8,1426c0-0.9-0.4-1.7-1.3-1.7c-1.3,0-1.7,1.5-1.7,3.2c0,1.7,0.5,3.1,1.7,3.1c0.9,0,1.4-0.9,1.4-1.8h2.8
			c-0.4,2.2-1.8,3.6-4.2,3.6c-2.8,0-4.6-2-4.6-4.9c0-3.2,2-5.1,4.6-5.1c2.1,0,3.8,1.3,4.1,3.6H239.8z"/>
		<path d="M245.4,1422.6h7.8v9.6h-2.7l0-7.6h-2.5l-0.1,3.5c-0.1,2.6-0.9,4.2-3.1,4.2c-0.4,0-0.9-0.1-1.3-0.2v-1.8
			c1.4,0.1,1.7-1,1.8-2.5L245.4,1422.6z"/>
		<path d="M257.7,1427.9c0.1,1.4,0.5,2.9,1.9,2.9c0.9,0,1.4-0.6,1.5-1.5h2.6c-0.4,1.7-1.8,3.2-4.2,3.2c-2.7,0-4.6-2.2-4.6-5.2
			c0-2.7,1.7-5,4.6-5c3.2,0,4.5,2.6,4.5,4.7c0,0.2,0,0.6-0.1,0.9H257.7z M261.3,1426.2c0-1-0.5-2.1-1.7-2.1c-1.2,0-1.7,1.1-1.8,2.1
			H261.3z"/>
		<path d="M273.9,1432.2h-6.6v2.3H265l-0.1-4.4h0.4c1.4,0,1.9-1.3,2.1-2.7l0.6-4.9h7v7.5h1.4l-0.1,4.4h-2.3V1432.2z M272.5,1424.5
			h-2.3l-0.4,3.2c-0.1,1.1-0.4,1.9-0.9,2.5h3.5L272.5,1424.5z"/>
		<path d="M282.4,1422.3c3.4,0,4.9,2.8,4.9,5c0,2.6-1.7,5.2-4.9,5.2c-3.1,0-5-2.3-5-5.1C277.4,1425,279,1422.3,282.4,1422.3z
			 M282.4,1430.6c1.4,0,2.2-1.1,2.2-3.3c0-2.1-0.9-3.2-2.2-3.2c-1.1,0-2.2,0.9-2.2,3.2C280.2,1429.1,280.8,1430.6,282.4,1430.6z"/>
		<path d="M289.1,1422.6h4.1c2.3,0,3.9,1,3.9,2.4c0,1-0.6,1.7-2.1,2.1v0.2c1.7,0.3,2.4,1.2,2.4,2.3c0,1.7-1.8,2.7-4.3,2.7h-4V1422.6
			z M291.9,1426.5l0.7,0c1.1-0.1,1.8-0.5,1.8-1.3c0-0.8-0.8-1.1-1.5-1.2l-1,0V1426.5z M291.9,1428v2.7l0.9,0
			c1.1-0.1,1.7-0.5,1.7-1.3c0-0.8-0.6-1.3-1.9-1.3L291.9,1428z"/>
		<path d="M304.8,1432.2c0.1-0.3,0.1-0.7,0.1-1.1h-0.2c-0.8,0.8-1.7,1.3-2.9,1.3c-1.9,0-3.1-1.1-3.1-2.9c0-1.9,1.6-3,3.6-3
			c0.9,0,1.9,0.1,2.6,0.3v-0.8c-0.1-1.3-0.6-1.9-1.7-1.9c-1,0-1.5,0.6-1.4,1.4h-2.9c0.3-1.7,1.9-3.1,4.4-3.1c2.2,0,4.2,1.1,4.2,3.6
			v4.8c0,0.4,0,1,0.1,1.4H304.8z M304.9,1428.1c-0.6-0.1-1.2-0.2-1.8-0.2c-1.1,0.1-1.6,0.6-1.6,1.4c0,0.7,0.5,1.3,1.4,1.3
			c1,0,1.6-0.6,2-1.1V1428.1z"/>
		<path d="M315.6,1432.2v-4h-3.2v4h-2.7v-9.6h2.7v3.6h3.2v-3.6h2.7v9.6H315.6z"/>
		<path d="M320.7,1422.6h2.5l0,6.2h0.2l3.4-6.2h3.1v9.6h-2.5l0-6.5h-0.2l-3.4,6.5h-3V1422.6z"/>
		<path d="M332,1422.6h2.5l0,6.2h0.2l3.4-6.2h3.1v9.6h-2.5l0-6.5h-0.2l-3.4,6.5h-3V1422.6z M337.9,1418.2h1.5c0.1,2.1-1,3.4-2.8,3.4
			c-1.8,0-2.9-1.3-2.8-3.4h1.5c0,0.3,0.1,1.6,1.3,1.6S337.9,1418.6,337.9,1418.2z"/>
	</g>
</g>
</svg>
