<?xml version="1.0" encoding="utf-8"?>
<!-- Generator: Adobe Illustrator 21.0.0, SVG Export Plug-In . SVG Version: 6.00 Build 0)  -->
<svg version="1.1" id="Layer_1" xmlns="http://www.w3.org/2000/svg" xmlns:xlink="http://www.w3.org/1999/xlink" x="0px" y="0px"
	 viewBox="0 0 454 112" style="enable-background:new 0 0 454 112;" xml:space="preserve">
<style type="text/css">
	.st0{fill:#0000FF;}
	.st1{fill:none;}
	.st2{font-family:'Agipo-Bold';}
	.st3{font-size:18px;}
</style>
<g>
	<rect y="6.4" class="st0" width="24" height="105.6"/>
</g>
<g>
	<rect x="214.5" y="6.4" class="st0" width="24" height="105.6"/>
</g>
<g>
	<rect x="430" y="6.4" class="st0" width="24" height="105.6"/>
</g>
<g>
	<rect y="655.4" class="st0" width="24" height="141"/>
</g>
<g>
	<rect x="214.5" y="655.4" class="st0" width="24" height="141"/>
</g>
<g>
	<rect x="430" y="655.4" class="st0" width="24" height="141"/>
</g>
<g>
	<g>
		<rect x="113.9" y="1342.2" class="st0" width="16" height="47"/>
	</g>
	<g>
		<rect x="147.8" y="1342.2" class="st0" width="16" height="47"/>
	</g>
	<g>
		<rect x="181.7" y="1342.2" class="st0" width="16" height="47"/>
	</g>
	<g>
		<path class="st0" d="M221.1,1349h2.7v-7.6h2.7v9.6H213v-9.6h2.8v7.6h2.8v-7.6h2.6v7.6H221.1z"/>
		<path class="st0" d="M228.8,1341.4h2.8v4h0.2l2.9-4h3.2l-3.7,4.6l4,5h-3.3l-3.1-4.2h-0.2v4.2h-2.8L228.8,1341.4L228.8,1341.4z"/>
		<path class="st0" d="M243.3,1341.2c3.4,0,4.9,2.8,4.9,5c0,2.6-1.7,5.2-4.9,5.2c-3.1,0-5-2.3-5-5.1
			C238.3,1343.9,240,1341.2,243.3,1341.2z M243.3,1349.5c1.4,0,2.2-1.1,2.2-3.3c0-2.1-0.9-3.2-2.2-3.2c-1.1,0-2.2,0.9-2.2,3.2
			C241.1,1348,241.7,1349.5,243.3,1349.5z"/>
		<path class="st0" d="M250.9,1341.4h7.8v9.6H256v-7.6h-2.5l-0.1,3.5c-0.1,2.6-0.9,4.2-3.1,4.2c-0.4,0-0.9-0.1-1.3-0.2v-1.8
			c1.4,0.1,1.7-1,1.8-2.5L250.9,1341.4z"/>
		<path class="st0" d="M266.6,1351c0.1-0.3,0.1-0.7,0.1-1.1h-0.2c-0.8,0.8-1.7,1.3-2.9,1.3c-1.9,0-3.1-1.1-3.1-2.9
			c0-1.9,1.6-3,3.6-3c0.9,0,1.9,0.1,2.6,0.3v-0.8c-0.1-1.3-0.6-1.9-1.7-1.9c-1,0-1.5,0.6-1.4,1.4h-2.9c0.3-1.7,1.9-3.1,4.4-3.1
			c2.2,0,4.2,1.1,4.2,3.6v4.8c0,0.4,0,1,0.1,1.4L266.6,1351L266.6,1351z M266.7,1347c-0.6-0.1-1.2-0.2-1.8-0.2
			c-1.1,0.1-1.6,0.6-1.6,1.4c0,0.7,0.5,1.3,1.4,1.3c1,0,1.6-0.6,2-1.1V1347z"/>
	</g>
	<g>
		<path class="st0" d="M213,1360.4h8.7v9.6H219v-7.5h-3.2v7.5H213V1360.4z"/>
		<path class="st0" d="M226.3,1365.8c0.1,1.4,0.5,2.9,1.9,2.9c0.9,0,1.4-0.6,1.5-1.5h2.6c-0.4,1.7-1.8,3.2-4.2,3.2
			c-2.7,0-4.6-2.2-4.6-5.2c0-2.7,1.7-5,4.6-5c3.2,0,4.5,2.6,4.5,4.7c0,0.2,0,0.6-0.1,0.9H226.3z M229.9,1364.1c0-1-0.5-2.1-1.7-2.1
			s-1.7,1.1-1.8,2.1H229.9z"/>
		<path class="st0" d="M239.9,1370.2c-1.1,0-2-0.4-2.6-1.3h-0.2c0,0.1,0,0.2,0,0.3v0.8v3.5h-2.8v-11.3l-0.1-1.8h2.7v1.3h0.2
			c0.6-0.9,1.6-1.4,2.7-1.4c2.5,0,4,2,4,5C243.8,1368.3,242.1,1370.2,239.9,1370.2z M239.1,1362.1c-1.1,0-1.8,1.1-1.9,2v2.2
			c0.1,0.8,0.8,2,2,2c1.3,0,1.9-1.3,1.9-3.1C241,1363.3,240.4,1362.1,239.1,1362.1z"/>
		<path class="st0" d="M251.1,1363.8c0-0.9-0.4-1.7-1.3-1.7c-1.3,0-1.7,1.5-1.7,3.2s0.5,3.1,1.7,3.1c0.9,0,1.4-0.9,1.4-1.8h2.8
			c-0.4,2.2-1.8,3.6-4.2,3.6c-2.8,0-4.6-2-4.6-4.9c0-3.2,2-5.1,4.6-5.1c2.1,0,3.8,1.3,4.1,3.6L251.1,1363.8L251.1,1363.8z"/>
		<path class="st0" d="M255.6,1360.4h8.7v9.6h-2.8v-7.5h-3.2v7.5h-2.8L255.6,1360.4L255.6,1360.4z"/>
		<path class="st0" d="M268.9,1365.8c0.1,1.4,0.5,2.9,1.9,2.9c0.9,0,1.4-0.6,1.5-1.5h2.6c-0.4,1.7-1.8,3.2-4.2,3.2
			c-2.7,0-4.6-2.2-4.6-5.2c0-2.7,1.7-5,4.6-5c3.2,0,4.5,2.6,4.5,4.7c0,0.2,0,0.6-0.1,0.9H268.9z M272.5,1364.1c0-1-0.5-2.1-1.7-2.1
			s-1.7,1.1-1.8,2.1H272.5z"/>
		<path class="st0" d="M277,1360.4h2.8v4h0.2l2.9-4h3.2l-3.7,4.6l4,5H283l-3.1-4.2h-0.2v4.2H277V1360.4z"/>
		<path class="st0" d="M286.9,1360.4h8.5v2h-2.8v7.7h-2.8v-7.7H287v-2H286.9z"/>
		<path class="st0" d="M296.7,1360.4h2.5v6.2h0.2l3.4-6.2h3.1v9.6h-2.5v-6.5h-0.2l-3.4,6.5h-3v-9.6H296.7z"/>
		<path class="st0" d="M308,1360.4h4.1c2.3,0,3.9,1,3.9,2.4c0,1-0.6,1.7-2.1,2.1v0.2c1.7,0.3,2.4,1.2,2.4,2.3c0,1.7-1.8,2.7-4.3,2.7
			h-4V1360.4z M310.8,1364.4h0.7c1.1-0.1,1.8-0.5,1.8-1.3s-0.8-1.1-1.5-1.2h-1V1364.4z M310.8,1365.8v2.7h0.9
			c1.1-0.1,1.7-0.5,1.7-1.3s-0.6-1.3-1.9-1.3L310.8,1365.8z"/>
		<path class="st0" d="M324,1370v-4h-3.2v4h-2.7v-9.6h2.7v3.6h3.2v-3.6h2.7v9.6H324z"/>
		<path class="st0" d="M331.8,1360.4v3.6h1.5c2.1,0,3.5,1.2,3.5,2.9c0,1.7-1.5,3.1-3.8,3.1h-4v-9.6H331.8z M332.5,1368.5
			c1.1-0.1,1.6-0.6,1.6-1.5s-0.6-1.4-1.5-1.5h-0.8v3H332.5z M337.8,1360.4h2.7v9.6h-2.7V1360.4z"/>
		<path class="st0" d="M351.4,1370h-3.2l-1.6-3.1h-0.2l-1.7,3.1h-2.9l3-4.9l-2.9-4.7h3.3l1.3,2.8h0.1l1.5-2.8h2.9l-2.9,4.7
			L351.4,1370z"/>
	</g>
	<g>
		<path class="st0" d="M213,1379.4h2.5v6.2h0.2l3.4-6.2h3.1v9.6h-2.5v-6.5h-0.2l-3.4,6.5h-3v-9.6H213z"/>
		<path class="st0" d="M229.8,1382.8c0-0.9-0.4-1.7-1.3-1.7c-1.3,0-1.7,1.5-1.7,3.2s0.5,3.1,1.7,3.1c0.9,0,1.4-0.9,1.4-1.8h2.8
			c-0.4,2.2-1.8,3.6-4.2,3.6c-2.8,0-4.6-2-4.6-4.9c0-3.2,2-5.1,4.6-5.1c2.1,0,3.8,1.3,4.1,3.6L229.8,1382.8L229.8,1382.8z"/>
		<path class="st0" d="M239.8,1382.8c0-0.9-0.4-1.7-1.3-1.7c-1.3,0-1.7,1.5-1.7,3.2s0.5,3.1,1.7,3.1c0.9,0,1.4-0.9,1.4-1.8h2.8
			c-0.4,2.2-1.8,3.6-4.2,3.6c-2.8,0-4.6-2-4.6-4.9c0-3.2,2-5.1,4.6-5.1c2.1,0,3.8,1.3,4.1,3.6L239.8,1382.8L239.8,1382.8z"/>
		<path class="st0" d="M245.4,1379.4h7.8v9.6h-2.7v-7.6H248l-0.1,3.5c-0.1,2.6-0.9,4.2-3.1,4.2c-0.4,0-0.9-0.1-1.3-0.2v-1.8
			c1.4,0.1,1.7-1,1.8-2.5L245.4,1379.4z"/>
		<path class="st0" d="M257.7,1384.8c0.1,1.4,0.5,2.9,1.9,2.9c0.9,0,1.4-0.6,1.5-1.5h2.6c-0.4,1.7-1.8,3.2-4.2,3.2
			c-2.7,0-4.6-2.2-4.6-5.2c0-2.7,1.7-5,4.6-5c3.2,0,4.5,2.6,4.5,4.7c0,0.2,0,0.6-0.1,0.9H257.7z M261.3,1383.1c0-1-0.5-2.1-1.7-2.1
			s-1.7,1.1-1.8,2.1H261.3z"/>
		<path class="st0" d="M273.9,1389h-6.6v2.3H265l-0.1-4.4h0.4c1.4,0,1.9-1.3,2.1-2.7l0.6-4.9h7v7.5h1.4l-0.1,4.4H274v-2.2H273.9z
			 M272.5,1381.4h-2.3l-0.4,3.2c-0.1,1.1-0.4,1.9-0.9,2.5h3.5L272.5,1381.4z"/>
		<path class="st0" d="M282.4,1379.2c3.4,0,4.9,2.8,4.9,5c0,2.6-1.7,5.2-4.9,5.2c-3.1,0-5-2.3-5-5.1
			C277.4,1381.9,279,1379.2,282.4,1379.2z M282.4,1387.5c1.4,0,2.2-1.1,2.2-3.3c0-2.1-0.9-3.2-2.2-3.2c-1.1,0-2.2,0.9-2.2,3.2
			C280.2,1386,280.8,1387.5,282.4,1387.5z"/>
		<path class="st0" d="M289.1,1379.4h4.1c2.3,0,3.9,1,3.9,2.4c0,1-0.6,1.7-2.1,2.1v0.2c1.7,0.3,2.4,1.2,2.4,2.3
			c0,1.7-1.8,2.7-4.3,2.7h-4V1379.4z M291.9,1383.4h0.7c1.1-0.1,1.8-0.5,1.8-1.3s-0.8-1.1-1.5-1.2h-1V1383.4z M291.9,1384.8v2.7h0.9
			c1.1-0.1,1.7-0.5,1.7-1.3s-0.6-1.3-1.9-1.3L291.9,1384.8z"/>
		<path class="st0" d="M304.8,1389c0.1-0.3,0.1-0.7,0.1-1.1h-0.2c-0.8,0.8-1.7,1.3-2.9,1.3c-1.9,0-3.1-1.1-3.1-2.9
			c0-1.9,1.6-3,3.6-3c0.9,0,1.9,0.1,2.6,0.3v-0.8c-0.1-1.3-0.6-1.9-1.7-1.9c-1,0-1.5,0.6-1.4,1.4h-2.9c0.3-1.7,1.9-3.1,4.4-3.1
			c2.2,0,4.2,1.1,4.2,3.6v4.8c0,0.4,0,1,0.1,1.4L304.8,1389L304.8,1389z M304.9,1385c-0.6-0.1-1.2-0.2-1.8-0.2
			c-1.1,0.1-1.6,0.6-1.6,1.4c0,0.7,0.5,1.3,1.4,1.3c1,0,1.6-0.6,2-1.1V1385z"/>
		<path class="st0" d="M315.6,1389v-4h-3.2v4h-2.7v-9.6h2.7v3.6h3.2v-3.6h2.7v9.6H315.6z"/>
		<path class="st0" d="M320.7,1379.4h2.5v6.2h0.2l3.4-6.2h3.1v9.6h-2.5v-6.5h-0.2l-3.4,6.5h-3v-9.6H320.7z"/>
		<path class="st0" d="M332,1379.4h2.5v6.2h0.2l3.4-6.2h3.1v9.6h-2.5v-6.5h-0.2l-3.4,6.5h-3v-9.6H332z M337.9,1375.1h1.5
			c0.1,2.1-1,3.4-2.8,3.4s-2.9-1.3-2.8-3.4h1.5c0,0.3,0.1,1.6,1.3,1.6S337.9,1375.4,337.9,1375.1z"/>
	</g>
</g>
<rect x="249.3" y="2.5" class="st1" width="162.5" height="84.6"/>
<text transform="matrix(1 0 0 1 249.308 15.5157)" class="st0 st2 st3">школа </text>
<text transform="matrix(1 0 0 1 249.308 33.5157)" class="st0 st2 st3">перспективных </text>
<text transform="matrix(1 0 0 1 249.308 51.5157)" class="st0 st2 st3">исследований </text>
<rect x="36.5" y="2.5" class="st1" width="162.5" height="84.6"/>
<text transform="matrix(1 0 0 1 36.4834 15.5157)" class="st0 st2 st3">тюменский </text>
<text transform="matrix(1 0 0 1 36.4834 33.5157)" class="st0 st2 st3">государственный </text>
<text transform="matrix(1 0 0 1 36.4834 51.5157)" class="st0 st2 st3">университет </text>
</svg>
